<svg xmlns="http://www.w3.org/2000/svg" xmlns:xlink="http://www.w3.org/1999/xlink" version="1.1" x="0px" y="0px" viewBox="0 0 100 100" enable-background="new 0 0 100 100" xml:space="preserve"><path d="M85.9,18.1H13.8c-2.8,0-5,2.2-5,5v51.2c0,0.1,0,0.2,0,0.3v5.4c0,2.5,2.1,4.6,4.6,4.6h33.6c1.1,0,2-0.4,2.8-1  c0.8,0.6,1.7,1,2.8,1h33.6c2.5,0,4.6-2.1,4.6-4.6v-5.7V23.1C90.9,20.3,88.7,18.1,85.9,18.1z M48,79.9c0,0.5-0.4,0.9-0.9,0.9H13.5  c-0.5,0-0.9-0.4-0.9-0.9v-3.8H48V79.9z M48,72.4H12.6V23.1c0-0.7,0.6-1.3,1.3-1.3H48V72.4z M87.2,79.9c0,0.5-0.4,0.9-0.9,0.9H52.7  c-0.5,0-0.9-0.4-0.9-0.9v-3.8h35.4V79.9z M87.2,72.4H51.7V21.8h34.2c0.7,0,1.3,0.6,1.3,1.3V72.4z M80.2,41.9c0,1-0.8,1.8-1.8,1.8  H60.3c-1,0-1.8-0.8-1.8-1.8s0.8-1.8,1.8-1.8h18.1C79.4,40.1,80.2,40.9,80.2,41.9z M80.2,51.9c0,1-0.8,1.8-1.8,1.8H60.3  c-1,0-1.8-0.8-1.8-1.8c0-1,0.8-1.8,1.8-1.8h18.1C79.4,50.1,80.2,50.9,80.2,51.9z M80.2,62.3c0,1-0.8,1.8-1.8,1.8H60.3  c-1,0-1.8-0.8-1.8-1.8c0-1,0.8-1.8,1.8-1.8h18.1C79.4,60.5,80.2,61.3,80.2,62.3z M80.2,31.7c0,1-0.8,1.8-1.8,1.8H60.3  c-1,0-1.8-0.8-1.8-1.8s0.8-1.8,1.8-1.8h18.1C79.4,29.8,80.2,30.6,80.2,31.7z M19.3,41.9c0-1,0.8-1.8,1.8-1.8h18.1  c1,0,1.8,0.8,1.8,1.8s-0.8,1.8-1.8,1.8H21.1C20.1,43.8,19.3,43,19.3,41.9z M19.3,51.9c0-1,0.8-1.8,1.8-1.8h18.1c1,0,1.8,0.8,1.8,1.8  c0,1-0.8,1.8-1.8,1.8H21.1C20.1,53.8,19.3,52.9,19.3,51.9z M19.3,62.3c0-1,0.8-1.8,1.8-1.8h18.1c1,0,1.8,0.8,1.8,1.8  c0,1-0.8,1.8-1.8,1.8H21.1C20.1,64.2,19.3,63.4,19.3,62.3z M19.3,31.7c0-1,0.8-1.8,1.8-1.8h18.1c1,0,1.8,0.8,1.8,1.8  s-0.8,1.8-1.8,1.8H21.1C20.1,33.5,19.3,32.7,19.3,31.7z"></path></svg>